HIERARCHY
ROOT Pelvis
{
	OFFSET 0.000000 0.000000 0.000000
	CHANNELS 6 Xposition Yposition Zposition Zrotation Yrotation Xrotation 
	JOINT Left_hip
	{
		OFFSET 0.067986 -0.089946 -0.007639
		CHANNELS 3 Zrotation Yrotation Xrotation
		JOINT Left_knee
		{
			OFFSET 0.036308 -0.388288 -0.004016
			CHANNELS 3 Zrotation Yrotation Xrotation
			JOINT Left_ankle
			{
				OFFSET -0.012264 -0.413250 -0.042878
				CHANNELS 3 Zrotation Yrotation Xrotation
				JOINT Left_foot
				{
					OFFSET 0.024043 -0.058563 0.118570
					CHANNELS 3 Zrotation Yrotation Xrotation
					End Site
					{
						OFFSET 0.000000 0.000000 0.000000
					}
				}
			}
		}
	}
	JOINT Right_hip
	{
		OFFSET -0.065648 -0.089374 -0.003858
		CHANNELS 3 Zrotation Yrotation Xrotation
		JOINT Right_knee
		{
			OFFSET -0.042132 -0.395021 -0.006361
			CHANNELS 3 Zrotation Yrotation Xrotation
			JOINT Right_ankle
			{
				OFFSET 0.014805 -0.413264 -0.041054
				CHANNELS 3 Zrotation Yrotation Xrotation
				JOINT Right_foot
				{
					OFFSET -0.021758 -0.049013 0.121832
					CHANNELS 3 Zrotation Yrotation Xrotation
					End Site
					{
						OFFSET 0.000000 0.000000 0.000000
					}
				}
			}
		}
	}
	JOINT Spine1
	{
		OFFSET -0.002755 0.104406 -0.022277
		CHANNELS 3 Zrotation Yrotation Xrotation
		JOINT Spine2
		{
			OFFSET 0.004136 0.129393 -0.002186
			CHANNELS 3 Zrotation Yrotation Xrotation
			JOINT Spine3
			{
				OFFSET 0.001906 0.049304 0.025578
				CHANNELS 3 Zrotation Yrotation Xrotation
				JOINT Neck
				{
					OFFSET -0.004620 0.210958 -0.044063
					CHANNELS 3 Zrotation Yrotation Xrotation
					JOINT Head
					{
						OFFSET 0.003833 0.067393 0.052435
						CHANNELS 3 Zrotation Yrotation Xrotation
						End Site
						{
							OFFSET 0.000000 0.000000 0.000000
						}
					}
				}
				JOINT Left_collar
				{
					OFFSET 0.070771 0.116689 -0.037192
					CHANNELS 3 Zrotation Yrotation Xrotation
					JOINT Left_shoulder
					{
						OFFSET 0.080652 0.031596 -0.005617
						CHANNELS 3 Zrotation Yrotation Xrotation
						JOINT Left_elbow
						{
							OFFSET 0.262654 -0.015020 -0.027939
							CHANNELS 3 Zrotation Yrotation Xrotation
							JOINT Left_wrist
							{
								OFFSET 0.250438 0.010062 -0.000990
								CHANNELS 3 Zrotation Yrotation Xrotation
								JOINT Left_palm
								{
									OFFSET 0.081198 -0.010037 -0.013706
									CHANNELS 3 Zrotation Yrotation Xrotation
									End Site
									{
										OFFSET 0.000000 0.000000 0.000000
									}
								}
							}
						}
					}
				}
				JOINT Right_collar
				{
					OFFSET -0.072972 0.115556 -0.040762
					CHANNELS 3 Zrotation Yrotation Xrotation
					JOINT Right_shoulder
					{
						OFFSET -0.082917 0.031841 -0.006673
						CHANNELS 3 Zrotation Yrotation Xrotation
						JOINT Right_elbow
						{
							OFFSET -0.252882 -0.013790 -0.020410
							CHANNELS 3 Zrotation Yrotation Xrotation
							JOINT Right_wrist
							{
								OFFSET -0.255570 0.009163 -0.005138
								CHANNELS 3 Zrotation Yrotation Xrotation
								JOINT Right_palm
								{
									OFFSET -0.080804 -0.007282 -0.010415
									CHANNELS 3 Zrotation Yrotation Xrotation
									End Site
									{
										OFFSET 0.000000 0.000000 0.000000
									}
								}
							}
						}
					}
				}
			}
		}
	}
}
MOTION
Frames: 9
Frame Time: 0.100000
0.000000 0.000000 0.000000 174.811720 24.551909 -17.979645 8.426602 6.022185 8.949337 -4.354851 -15.563273 -3.498846 -8.092579 13.087711 -7.441624 3.947893 -0.159774 1.085221 -5.263070 -7.666893 9.849055 5.093735 8.945911 -0.844839 13.509021 -13.140696 -10.206297 -10.450495 8.447160 1.914900 1.562553 1.306750 10.518366 -0.043326 -3.671910 -0.297172 1.409831 -0.227058 2.622129 -0.064854 2.930451 0.308199 2.498615 0.618790 -6.159117 -3.709359 2.149161 -8.094420 -1.429536 3.029021 -14.598292 2.415528 -6.301931 -8.271630 -0.296162 -8.139026 19.643182 -5.101085 -1.252007 -12.152300 3.334465 -2.035776 -6.575297 3.598719 -6.266514 -11.869166 -3.824975 4.602158 -8.730821 2.367566 2.923466 16.300111 5.810215 3.692836 -2.739892 
-0.000786 -0.000271 0.002014 174.857252 24.467680 -18.057087 8.465419 6.085047 9.337618 -4.322640 -15.620479 -3.654324 -8.031745 13.104244 -7.512110 3.835408 -0.078598 1.053783 -5.315400 -7.666296 10.173610 5.071870 9.036525 -0.953035 13.427421 -13.079529 -10.251056 -10.252543 8.358223 1.922405 1.565762 1.285127 10.373476 -0.116511 -3.657324 -0.311776 1.344854 -0.240976 2.653216 -0.062815 2.973554 0.685847 2.373106 0.732626 -5.953060 -3.663283 2.339869 -8.136942 -1.539631 2.986011 -14.674582 2.456019 -6.290098 -8.176513 -0.284461 -8.102607 19.654448 -5.044626 -1.204293 -12.095460 3.236777 -2.205927 -6.669742 3.717152 -6.096434 -11.880182 -3.845388 4.696009 -8.620251 2.341042 2.868971 16.332466 5.787226 3.689346 -2.700828 
-0.001768 -0.000559 0.003839 174.850694 24.352031 -18.122925 8.525347 6.116145 9.650977 -4.302091 -15.661466 -3.770146 -8.024046 13.169551 -7.635335 3.829491 -0.082410 1.118717 -5.342473 -7.683199 10.412199 5.081077 9.112979 -1.000035 13.424969 -13.032434 -10.292186 -10.183172 8.365304 1.937746 1.544812 1.300754 10.217104 -0.124178 -3.629127 -0.223533 1.334397 -0.219930 2.651758 -0.047225 3.003342 0.766008 2.307443 0.771368 -5.926920 -3.736866 2.410784 -8.150402 -1.510374 3.074013 -14.660847 2.459071 -6.304730 -8.230079 -0.217508 -8.056320 19.659373 -5.087131 -1.216445 -12.130254 3.301338 -2.235362 -6.662988 3.624380 -6.129781 -11.869983 -3.771396 4.732614 -8.638944 2.328506 2.842361 16.287701 5.836729 3.692848 -2.731999 
-0.002687 -0.000678 0.005102 174.816219 24.307345 -18.149851 8.565688 6.116302 9.771121 -4.321288 -15.698017 -3.736736 -7.990611 13.198899 -7.796448 3.802234 -0.115992 1.213346 -5.330869 -7.665033 10.510802 5.077519 9.146166 -0.960842 13.397199 -13.005634 -10.373904 -10.105415 8.326563 1.966212 1.474887 1.320576 10.125047 -0.094893 -3.633747 -0.216244 1.338759 -0.222142 2.625436 -0.023415 3.035649 0.738094 2.262006 0.728215 -5.911658 -3.770716 2.445725 -8.131934 -1.450270 3.177389 -14.653875 2.493900 -6.293423 -8.209789 -0.140698 -8.084933 19.741062 -5.126340 -1.224361 -12.177494 3.404146 -2.230048 -6.667077 3.643683 -6.096237 -11.850318 -3.853735 4.720109 -8.609114 2.266404 2.866987 16.309119 5.867335 3.699377 -2.742345 
-0.003589 -0.000714 0.005707 174.784358 24.333788 -18.150276 8.577939 6.093227 9.817236 -4.367746 -15.752410 -3.715993 -7.948060 13.191740 -7.919625 3.774152 -0.129282 1.290195 -5.348627 -7.671660 10.550423 5.077529 9.135366 -0.909099 13.423257 -13.017226 -10.468544 -10.119286 8.366881 1.989659 1.405877 1.374824 10.084464 -0.076888 -3.622917 -0.227326 1.337071 -0.208913 2.581120 0.052147 3.067342 0.679900 2.294475 0.650555 -5.835225 -3.847762 2.363849 -8.114613 -1.335214 3.200207 -14.622783 2.471559 -6.296259 -8.165698 -0.081830 -8.107341 19.921212 -5.207885 -1.259098 -12.260349 3.549152 -2.166711 -6.636271 3.615653 -6.169814 -11.810542 -3.920250 4.737882 -8.621736 2.212562 2.907384 16.343141 5.925615 3.723832 -2.783586 
-0.004479 -0.000634 0.005571 174.729597 24.482984 -18.147668 8.544841 6.049570 9.765813 -4.400148 -15.830529 -3.684602 -7.920433 13.134298 -7.975604 3.758703 -0.111279 1.316003 -5.373951 -7.684857 10.558062 5.056111 9.071149 -0.897439 13.454737 -13.073580 -10.509833 -10.169626 8.378869 1.975362 1.363482 1.399228 10.161108 -0.082108 -3.633152 -0.217842 1.342451 -0.215800 2.562938 0.048695 3.028696 0.555878 2.330842 0.597250 -5.908486 -3.933202 2.321539 -8.065031 -1.384700 3.234187 -14.565481 2.488313 -6.394156 -8.102955 0.063995 -8.167538 19.954006 -5.248538 -1.285905 -12.293615 3.629650 -2.141068 -6.602381 3.692971 -6.281913 -11.742094 -3.998473 4.922631 -8.631592 2.076247 2.991181 16.347302 5.965979 3.749543 -2.812205 
-0.005342 -0.000577 0.005003 174.692868 24.576607 -18.041994 8.522718 6.039795 9.696753 -4.442558 -15.804329 -3.866977 -7.919564 13.036740 -7.877254 3.784843 -0.056378 1.241423 -5.414796 -7.711228 10.378141 5.071114 8.939315 -0.816199 13.463062 -13.052906 -10.507875 -10.180854 8.406302 1.986096 1.399178 1.396469 10.186362 -0.115582 -3.542347 -0.221778 1.319833 -0.176210 2.561524 0.067662 3.059599 0.571593 2.272299 0.623024 -5.719722 -4.138502 2.443240 -8.048894 -1.582538 3.186412 -14.426718 2.694513 -6.906105 -8.079148 0.200279 -8.244202 19.841642 -5.310139 -1.315902 -12.300242 3.770930 -2.151487 -6.536553 3.729938 -6.221710 -11.680688 -4.061024 5.220443 -8.753400 1.951692 3.042938 16.231214 6.017950 3.757748 -2.825697 
-0.005129 -0.000616 0.004501 174.699686 24.332610 -17.819258 8.568202 6.049165 9.563198 -4.430794 -15.558436 -4.095148 -7.917468 12.952706 -7.708183 3.874680 0.160452 1.104160 -5.324892 -7.662474 9.853209 5.157826 8.745978 -0.446079 13.341271 -12.848698 -10.518133 -10.035873 8.371432 2.092992 1.511896 1.396945 10.199987 -0.126885 -3.292957 -0.221262 1.266923 -0.081024 2.444767 0.104569 3.138794 0.538325 2.030603 0.508653 -5.347182 -4.627656 2.784395 -8.059021 -1.723722 3.272054 -14.336894 3.660422 -8.560694 -8.453907 -0.120945 -8.155098 19.676447 -5.529022 -1.394609 -12.377431 4.226706 -2.239043 -6.476819 3.775999 -6.084973 -11.560051 -4.954526 6.999713 -9.252231 2.068101 3.141003 15.694308 6.266017 3.792204 -2.817092 
-0.003335 -0.000591 0.004678 174.861933 24.126417 -17.722110 8.555481 5.936586 9.528129 -4.367794 -15.085572 -4.148101 -7.833290 12.532731 -7.518288 4.117525 1.131849 0.819460 -5.270397 -7.450682 9.702640 5.236077 8.422985 -0.394128 12.957849 -12.545014 -10.537035 -9.642350 8.099902 2.247378 1.579596 1.364144 10.181783 -0.028647 -3.114658 0.219494 1.186733 -0.111492 2.241438 0.247508 3.320352 0.458208 1.411810 0.380804 -5.023375 -5.764703 3.728096 -7.907866 -2.293138 3.620114 -14.449859 7.392173 -14.477593 -10.170208 -1.263770 -7.578155 17.925436 -6.274069 -1.680456 -12.296481 5.210668 -2.981598 -6.600033 4.444391 -5.894863 -11.019817 -10.038158 15.351577 -11.518959 2.336711 3.355877 13.722906 7.272071 4.100557 -2.767935 
